
      <svg
        id="Layer_1"
        data-name="Layer 1"
        xmlns="http://www.w3.org/2000/svg"
        viewBox="0 0 1934.47 1748.15"
      >
        <defs>
          <style>
            .cls-1 {
              fill: #eaa94b;
            }
            .cls-2 {
              fill: #010101;
            }
            .cls-3 {
              fill: #3a2217;
            }
            .cls-4 {
              fill: #a4963d;
            }
            .cls-5 {
              fill: #b86e4c;
            }
            .cls-6 {
              fill: none;
              stroke: #a4963d;
              stroke-miterlimit: 10;
              stroke-width: 10px;
            }
            .cls-7 {
              fill: #efece6;
            }
          </style>
        </defs>
        <symbol id="cls-1" viewbox="0 0 50 50">
        <title> cls-1</title>
        <path
          class="cls-1"
          d="M314.72,608.11c.1-.2,5.2-19,17.2-19.6h.3c1.8,1,6.8,5.1,3.8,16.7-1.8,7,.2,12.9,5.3,16.1,10.1,6.2,29,.4,45.8-14.3l3.1-2.7c24-20.9,56.9-49.4,54.4-92.2,0-.5-.1-12.4,10.9-13h0c11-.5,13.2,5.4,16,12.9l.6,1.7c1.8,4.6,9.8,8.8,20.2,8.1,20.2-1.5,57.9-21.8,83.8-140.7.2-1.3,5.6-32.9-15-68.4-.2-1.6-.4-6.1,2-8.8,1.8-2,4.9-2.8,9.3-2.5,12.2,1,25.8,1.2,32.7-8,5.7-7.7,5.1-20-1.8-37.6-13-33.1-29.5-51.3-40.4-63.3-2.6-2.8-4.8-5.3-6.7-7.6,0-11.8-1.5-87.5-28.6-142.4-1.4-4.3-5.9-9.7-12.7-7.7a4.3,4.3,0,0,0-2.4,1.8c-.3.5-3,5.3.5,12.7,2.5,5.3,20.8,53.1,23.8,96.7-.6,2.3-4.8,14.2-27.4,18.5-14.6,2.8-87.4,18.4-84.3,53.9,2.3,26.2,8.2,32.7,15.7,40.8.9,1,1.8,2,2.8,3,2.6,2.9,5.5,7.2,4.8,10.7-.5,2.7-3.2,5.2-7.8,7.5-29.3,14.4-58,19.5-85.4,15-40.8-6.6-48.4,12.9-53,24.5-.4.9-.7,1.9-1.1,2.7-5.8,13.7-3.4,45.8,17.7,57.3a30.36,30.36,0,0,1,15.5,23c.6,5.9-.9,11.2-3.9,13.7-7.7,6.6-33.5,12.3-81.2-7.6-18.5-7.7-37.4-7.1-54.5,1.8-20.8,10.8-35.4,32.1-38.6,46.6-4.5,20.3,2.1,30.7,9.8,42.8.9,1.5,1.9,3,2.9,4.6,5,8.1,5.5,11,5,12-.2.5-1.5,2.1-9.4,3.3-21.6,3.3-71.5,15-69.6,51.4,2,37.4,28.4,39.4,47.7,40.9l1.2.1c10.2.8,13.1,2.2,13.9,2.7-.2.6-1,2.1-4,5.2-5.7,5.9-9.6,19.1-5.4,32,3.4,10.3,12.9,23.5,38.9,27.8a93.41,93.41,0,0,0,20.5,1.1c42.7-2,86.2-30.6,107-72.6C314.52,608.61,314.62,608.41,314.72,608.11Zm-93.4-40c38-16.7,74.8-35.7,109.4-58a547.17,547.17,0,0,0,95.5-77.2,493.69,493.69,0,0,0,40-46.6,436.34,436.34,0,0,0,33.6-51.4,435.15,435.15,0,0,0,26.2-55.7c7.4-19.2,13.6-39,17.3-59.4-1.3,20.8-6.1,41.2-12.2,61.2a370.09,370.09,0,0,1-23.8,58,399.12,399.12,0,0,1-32.9,53.6,454,454,0,0,1-40.5,48.1c-7.5,7.3-14.9,14.8-22.9,21.6-7.7,7.1-15.9,13.6-24.1,20.2-16.7,12.6-33.8,24.7-52,35.1A542.14,542.14,0,0,1,221.32,568.11Z"
          transform="translate(633.6 678.05)"
        /></symbol>
        <path
          class="cls-2"
          d="M946.6,579.5c13.4,12.4,29.9,27.2,56.1,35.8,27.7,9,51,6.1,82.9,2,29.8-3.8,43.9-10.3,53.2-16a104.94,104.94,0,0,0,21.8-17.7c2.3-.2,16.7-1.9,24.7-14a29.7,29.7,0,0,0,4.7-12.8,87.54,87.54,0,0,0,26.1-27.2c10.3-17,13.7-36.5,11.7-63.6-1.6-20.8-6.4-47-44.6-129.4-18.7-40.4-32-65.2-50.2-91.7-18.8-27.3-32-40.6-49.6-50.1-19-10.2-39.2-13.7-45-14.7a166,166,0,0,0-34.7-2c-9.2-20.2-17.9-36.7-24.8-49.1-8.4-15.2-15.3-26.5-22.7-37.3-10.4-15.2-15.7-22.9-23.5-29.1-11.5-9-13-4.6-34.8-16.9C881.3,36.4,874,29.2,866,32.4c-5.2,2.1-8.4,7.6-9.3,9A24.52,24.52,0,0,0,853.5,56c3.2,1.5,8.2,3.8,14.3,6.5,19.1,8.3,24.7,9.2,31.9,13.3,9,5.1,13.9,12,23.9,25.8,14,19.4,21.3,37,27.7,52.8,5.3,13.1,9,24.4,11.5,32.8a93.29,93.29,0,0,0-25.5,5.6c-21.8,8.3-34.3,22.8-39.6,29.1-14.7,17.4-21,36.3-24.8,53.3,2.1.8,4.4,1.6,6.8,2.4-2,.2-4.5.5-7.5.8-.3,1.3-.5,2.6-.8,3.9-8.5,43.7-21.7,111.2,8.1,192.1C887.4,495.6,904.5,540.6,946.6,579.5Zm192.6-7.9a32.12,32.12,0,0,1-5.7,5.4c-2,1.5-3.8,2.7-5.9,4.1a29,29,0,0,1-7.3,3.4,18.59,18.59,0,0,1-9.1.3,20.82,20.82,0,0,1-4-1.4,17.85,17.85,0,0,1-3.9-2.4,17.47,17.47,0,0,1-5-7.2,31.92,31.92,0,0,1-1.3-3.7,7.58,7.58,0,0,1-.3-2.8,15,15,0,0,1,.2-2.2,16.13,16.13,0,0,1,3.4-7.8,16.43,16.43,0,0,1,3-2.9c1.1-.8,2-1.3,3-1.9,4-2.3,8.5-4.8,13.3-4.8-4.2,2.1-7.3,5.2-10.5,8.4-.7.8-1.7,1.6-2.3,2.4a11,11,0,0,0-2.6,7.4,4.48,4.48,0,0,0,.1,1.2c0,.3.2.8.2.6.4.8.9,1.9,1.3,2.7a11.19,11.19,0,0,0,3,3.8,9.33,9.33,0,0,0,2,1,13.57,13.57,0,0,0,2.5.7,10,10,0,0,0,4.5-.3,22.46,22.46,0,0,0,5.1-2.3c1.8-1,3.8-2.3,5.5-3.4,3.5-2.3,6.4-4.9,7.5-7.8s.5-6.7-2-10c-2.2-3.2-6.3-5.3-11-5.6a14.82,14.82,0,0,1,14.3,2.4,18.53,18.53,0,0,1,4.9,6.4,15,15,0,0,1,.9,8.7A17.08,17.08,0,0,1,1139.2,571.6Zm77-107.9a85.06,85.06,0,0,1-8.6,37.4,86.13,86.13,0,0,1-10.5,16.4,74.55,74.55,0,0,1-14.4,13.1,64.6,64.6,0,0,1-35.8,11.6c11.8-4,22.5-9.7,31.4-17.5a86.22,86.22,0,0,0,21-27.7,99.6,99.6,0,0,0,9.7-33.7,130.51,130.51,0,0,0-1.8-36.2A82.12,82.12,0,0,1,1216.2,463.7ZM1012.5,284.3c5.2,14.7,10.2,29.5,15.5,44.1s10.4,29.4,15.8,44c10.6,29.4,21.6,58.3,35.5,86a663.91,663.91,0,0,0,47.8,80.1,422,422,0,0,1-54.3-76.7,448.69,448.69,0,0,1-20.7-42.4c-6.2-14.5-11.7-29.2-17.1-43.8s-10.4-29.5-15.4-44.4c-4.8-14.9-9.7-29.8-14.1-44.8-8.9-30-17-60.2-23.7-90.8C992.3,225.2,1002.3,254.8,1012.5,284.3ZM945.8,524.4l-3.8-5.1a162.31,162.31,0,0,1-13.4-21.9c-7.6-15.4-12.8-31.5-17.3-47.6-2.2-8.1-4.4-16.1-6.5-24.2s-4.1-16.2-5.9-24.4A573.68,573.68,0,0,1,885.8,302c5.2,32.9,11.7,65.5,20.1,97.5,4.3,15.9,8.9,31.9,13.7,47.8s9.8,31.5,17.2,45.9A157,157,0,0,0,949.3,514l3.6,4.9,3.8,4.9c2.5,3.3,5.1,6.4,7.7,9.5,10.5,12.5,22.6,23.4,36.5,31.6a105.42,105.42,0,0,0,45.9,14.2c16.3,1.2,32.8-1.7,48.5-7.3a110,110,0,0,1-48.6,11.9,90.25,90.25,0,0,1-12.7-.8l-6.4-.9c-2.1-.4-4.2-.9-6.3-1.4a102.18,102.18,0,0,1-23.9-9.3c-15.2-8-28.3-19.5-39.6-32.2-2.8-3.2-5.5-6.4-8.2-9.7Z"
          transform="translate(633.6 678.05)"
        />
        <path
          class="cls-3"
          d="M-51.6,1054.9a6.93,6.93,0,0,0-.9-3.1c-5.3-7.5-14.1-21.1-15.4-25.2-.2-2,1.4-10.2,19.5-45.3l.4-.9c.3-.6.8-1.3,1.3-2.3,36.2-59.3,22-144.7-41.2-247,6.5-12.1,26.1-56.7-12.4-104.6-40-49.8-138.5-104.8-237.4-48.5l10.4-86.6a5.16,5.16,0,0,0-1.4-4.3c-3.1-3.3-10.4-8.4-18.4-6-9.8,3-16.2,15.5-19.7,38.4v.1l-10.7,87.3c-13,14.7-115.7,136.7-72.8,238.7.2.5,13.2,29.2,37.5,45.2,13.9,9.1,31.6,14.1,52.7,6.9,16.9,18.9,111.2,119.7,213.4,129.1.5,0,44.4,1.7,61,26.1l.4.4,9.4,10.9a4.62,4.62,0,0,0,.7.7c1.6,1.3,10.1,7.6,17.2,4.2C-53.6,1067.2-51.4,1062.3-51.6,1054.9ZM-200.7,717.7c-6.7-.2-13.2.5-19.9.8-3.3.2-6.5.9-9.8,1.4l-4.9.7-4.8,1.2c-3.1.9-6.4,1.3-9.4,2.5l-9.3,3.1-8.9,3.9c-3,1.3-5.7,3.1-8.6,4.5-22.6,12.8-40.8,32.7-54.7,55.4-13.8,22.9-24.1,48.2-31.2,74.9,1.1-27.6,8.6-55.2,21.3-80.4a157.74,157.74,0,0,1,24-35.2,140.62,140.62,0,0,1,33.5-27.3c3.2-1.7,6.4-3.6,9.7-5l10-4.2,10.3-3.3a35.93,35.93,0,0,1,5.2-1.3l5.3-1.1c14.2-2.6,28.6-3.6,42.6-2,28.2,2.3,55.3,10.9,79.9,23.4C-147,722.9-174,717.8-200.7,717.7Z"
          transform="translate(633.6 678.05)"
        />
        <path
          class="cls-4"
          d="M-471.7-202a19.3,19.3,0,0,1-12.3,2.5,18.32,18.32,0,0,1-9.8-4.9c1.9,4.3,4.4,10.2,7.4,17.2,6,14.3,5.3,13.6,9.8,24.6,7.2,17.3,9.9,21.1,9.8,29.4,0,3.4-.1,12.4-4.9,14.7-4.5,2.1-10.8-2.5-17.2-7.4-5.3-4-8.6-7.4-17.2-17.2-15.8-17.8-19.4-22.9-22.1-27-3.3-5-5.7-9.3-7.4-12.3.1,4.3-.4,11.1-4.9,14.7-5.7,4.5-14.6,1.6-27-2.5-9.2-3-11.7-5.1-24.5-9.8-3.2-1.2-6.1-2.2-8.6-3s-4.5-1.4-6.1-1.9q2.4,2.1,4.5,4.2c13.4,13.2,15.8,23.2,15.2,30.2-.4,5.1-2.3,6.1-2.4,12.3-.3,12.5,7.2,15.3,9.8,29.4.5,2.6,3.3,18.4-4.9,24.5a14.81,14.81,0,0,1-7.4,2.5c8.1,7.8,18.1,17.7,29.5,29.4,6.8,7.1,13.4,14.1,14.7,24.5.4,2.8,1,8.7-2.4,12.3-3.7,3.9-8.8,1.4-17.2,2.5-4.3.5-12.8,5.3-29.5,14.7-11.3,6.4-14,8.1-19.6,9.8a58.94,58.94,0,0,1-17.2,2.5c10.4,6.4,18.9,11.5,24.6,14.7,17.2,10,24.1,13.4,31.9,22.1,9.5,10.7,9.8,17.6,9.8,19.6,0,7-3.7,12.8-4.9,14.7a32.92,32.92,0,0,1-9.8,9.8c6.6-.3,13.1-.3,19.6,0,20.2.9,20.6,3.5,31.9,2.4,9.9-.9,15-3.5,19.6,0,3.8,2.9,4.6,7.7,4.9,9.8,1.4,9.1-3.5,15.4-12.3,31.9-2.4,4.6-5.9,11.3-9.8,19.6a57.25,57.25,0,0,1,19.6-14.7c14.2-6.3,19.5-1,39.3-4.9,15-2.9,17.6-7.1,41.7-12.3,11.9-2.6,17.7-3,19.6,0,2.7,4-3.1,12.3-4.9,14.7a152.46,152.46,0,0,0,31.9-27,144.42,144.42,0,0,0,16.6-22.6,824.49,824.49,0,0,1,23.9,100.2,834.86,834.86,0,0,1,12.2,153,8.71,8.71,0,0,0,8.6,8.8,8.92,8.92,0,0,0,6.3-2.5,8.64,8.64,0,0,0,2.5-6A842.09,842.09,0,0,0-323.3,189,852.75,852.75,0,0,0-343,102.8c1.3,1.5,2.6,2.9,3.8,4.2,15.2,16.9,22.1,22.6,24.6,24.5,7.8,6.3,13,9.3,22.1,17.2a170.72,170.72,0,0,1,17.2,17.2,67.86,67.86,0,0,1-4.9-9.8c-3-7.1-5.3-12.9-4.9-19.6.1-1.2,1-13.7,9.8-19.6,6.7-4.5,12-1.2,34.4,0a285.46,285.46,0,0,0,29.4,0c2.6-.1,15-.6,31.9-2.4,14.6-1.6,15.7-2.4,22.1-2.5a84.43,84.43,0,0,1,29.5,4.9,155.48,155.48,0,0,1-22.1-12.3c-11.4-7.5-18.5-14.1-29.5-24.5-20.9-19.8-23.6-26.6-24.5-29.5-1.5-4.4-5.1-14.9,0-24.6a25.2,25.2,0,0,1,9.8-9.8c8.4-4.4,12.7.2,22.1-2.5,5.1-1.4,4.7-3,22.1-17.2,11.6-9.4,14.8-11.2,17.2-12.3a53.06,53.06,0,0,1,19.6-4.9A72.55,72.55,0,0,1-128-30.5c-7.5-6.5-13.5-11.7-14.7-19.6-1.4-9.1,4.2-16.9,9.8-24.5a67,67,0,0,1,14.7-14.7,27.79,27.79,0,0,1-9.8-9.8c-5.7-9.8-3.2-19.7-2.5-22.1a29.66,29.66,0,0,1,9.8-14.7,89.26,89.26,0,0,0-22.1,2.5c-17,4-25.1,11.2-51.5,22.1-15.4,6.3-20.1,6.9-24.5,4.9-9.7-4.4-11.8-18.7-12.3-22.1-1.5-10.1,1.9-12,7.3-36.8,3.4-15.6,3.3-20.2,7.4-31.9a137.93,137.93,0,0,1,7.4-17.2c-1.5,1.9-9.3,11.6-22.1,12.3-2.4.1-7.5.4-12.3-2.4-4.3-2.5-7.8-7.1-12.3-27a260.39,260.39,0,0,1-4.9-29.5A284.07,284.07,0,0,0-290-231.5c-3.6,4.2-8.3,9.9-14.7,9.8-5.6-.1-10-4.5-12.3-7.4.3,12.1.2,22.1,0,29.4-.7,27.5-3.1,41.3-9.8,54-3.8,7.3-7.5,11.3-12.3,12.3-6.7,1.5-12.9-3.5-14.7-4.9-6.5-5.2-9.1-11.9-14.7-39.3-3.1-14.9-5.2-25.4-7.4-41.7-1.2-9.1-2-16.8-2.5-22.1-3.7,9.3-11.8,15.2-19.6,14.7-8.1-.5-13.2-7.7-14.7-9.8a27.18,27.18,0,0,1-4.9-14.7c-.6,1.4-3.4,8.1-9.8,9.8-7.6,2-14.4-4.6-17.2-7.4a29.47,29.47,0,0,1-7.4-12.3c-1.7,10-3.5,18.4-4.9,24.5C-463-210.3-466.7-204.8-471.7-202ZM-484.9-30.5a522.58,522.58,0,0,1-38.7-48.9c-11.8-17.1-22.7-34.9-31.5-53.9,14.7,14.9,28.5,30.2,42.2,45.4L-472-42l40.9,45.8c13.6,15.4,27.3,30.7,40.4,47.1-17.9-10.9-34.3-23.7-50-37.4A524.38,524.38,0,0,1-484.9-30.5Zm176.6,79.8a113.62,113.62,0,0,1,35.4.5A114.31,114.31,0,0,1-239.2,61c10.5,5.5,20.1,12.5,27.7,21.7-11.4-3.1-22-6.3-32.6-9s-21-5-31.6-6.8-21.2-3.1-32.1-4-22-1.4-33.8-2.3C-331.4,54.5-320,51-308.3,49.3ZM-373.5,68a237.89,237.89,0,0,1-44.7-.8A360.51,360.51,0,0,1-462,59.9a352.07,352.07,0,0,1-42.6-12.5c-13.9-5.1-27.6-11-40.6-18.7,15.1.8,29.7,3.1,44.2,5.5s28.7,5.5,43,8.7,28.4,6.8,42.5,10.8C-401.6,57.9-387.5,62.2-373.5,68Zm122.7-250.4c-6.8,19.5-14.7,38.3-22.7,56.9s-16.4,37-25,55.4-17.3,36.6-26.4,54.7-18.4,36.2-29,53.9c3.9-20.3,9.8-39.9,16.5-59.2s14.5-38.2,23.2-56.8a596.4,596.4,0,0,1,28.6-54.2A403.11,403.11,0,0,1-250.8-182.4Zm-155.5,33.1a542.08,542.08,0,0,1,20,63.4,539.82,539.82,0,0,1,12.2,65.3c2.6,22,4.1,44.2,3.1,66.5-6.1-21.4-11.2-42.8-16.4-64l-15.7-63.6-16.2-63.5c-5.3-21.2-11-42.4-15.6-64.2C-423.5-190.2-414.4-170-406.3-149.3Z"
          transform="translate(633.6 678.05)"
        />
        <path
          class="cls-5"
          d="M915,172c-1.4,1.6-9,10.8-4.8,19.8,3.3,7.2,11.7,8.9,12.8,9.1a113.32,113.32,0,0,1,19.2,7.6c5.6,2.9,13.8,7.1,20.6,14,7.5,7.7,10.9,16.2,14.3,27.5a316.51,316.51,0,0,1,11.7,62.9c-3,.8-7.3,1.8-12.7,2.9-16,3.2-24.6,3.3-31.1,4.5-13.2,2.3-21.7,9.7-35.2,21.5-19.3,16.8-29.4,34.5-40,53.3A262.63,262.63,0,0,0,851,435.6c-12.2,33.8-14,62.4-15,86.4-2.5,59.8-1.6,114.2,0,154.6-.1,14.3,1.8,40.3,16.7,67.1,19.1,34.4,48.4,49.5,74.7,63.2,19.6,10.2,56.4,29.2,93.6,22.7,9.4-1.6,26.6-4.7,43.1-16.5,5.7-4.1,7.5-6.5,14.8-11.4,15-10.1,28.3-13.9,33.9-15.8,33.7-11.2,59.6-40.3,61.3-42.2,19.4-22.2,25.8-45.9,30.7-64.6,2.5-9.2,7.7-31.3,6.6-64.4-.7-24.1-4.3-39.6-26.3-114.5-24.1-82.2-28.9-94.9-41.8-112.2a208.2,208.2,0,0,0-51.3-48.5,200.57,200.57,0,0,0-54-25.1c-2.5-9.3-6.4-23.8-10.9-41.7-9.8-38.8-10.3-44.6-16.7-55.1-9.4-15.6-20.9-23.7-39.2-36.5-28.5-20.1-40.6-17.6-44-16.7A25.4,25.4,0,0,0,915,172Zm119.5,273.9,5.3,22.6,5.6,22.5c3.8,15,7.2,30.1,10.7,45.1l10.2,45.3c3.2,15.2,6.2,30.4,8.8,45.7s5,30.6,7,46c4.1,30.7,7.1,61.6,8.6,92.5-6.3-30.4-11.9-60.7-17.6-91.1-3-15.2-5.7-30.3-8.8-45.4s-6-30.2-9.3-45.3-6.5-30.2-9.5-45.4-6.1-30.4-8.8-45.6c-1.4-7.6-2.9-15.2-4.2-22.9l-3.4-23c-2.1-15.3-4.3-30.7-5.9-46.1C1027.2,415.8,1030.8,430.8,1034.5,445.9ZM921,416.3a140.87,140.87,0,0,0-17.2,46.3c-1.5,8.1-2.3,16.5-3.4,24.9-.5,4.2-.9,8.4-1.3,12.6s-.9,8.4-1.1,12.6c-1.4,16.8-2.3,33.7-2.8,50.6-.7,16.9-.8,33.8-.8,50.7s.4,33.9.7,50.8c.8,33.9,2.7,67.8,3.1,102-5.2-33.7-9.7-67.5-12.2-101.5-1.4-17-2.1-34.1-2.6-51.2s-.3-34.2.1-51.3c.8-17.1,1.7-34.2,3.5-51.2.4-4.3,1-8.5,1.5-12.8s1.1-8.5,1.7-12.7,1.3-8.5,2-12.7,1.6-8.5,2.7-12.8a135,135,0,0,1,21.3-47.5,132.89,132.89,0,0,1,37.3-35.2C940.6,389,929.3,401.9,921,416.3Zm128.6-77.6c1.7,2.1,3.5,4.2,5.2,6.3s3.6,4,5.5,6.1l4.6,5.1-7.4,1.5a41.72,41.72,0,0,0-27.3,18.4l-3.7,5.7-5.1-4.7a44.4,44.4,0,0,0-18.5-10.2,48.08,48.08,0,0,0-21.7-.6l-7.7,1.5,2.2-6.9c1.9-6,4-12,6.1-18,1.2-3,2.2-6,3.4-8.9s2.4-5.9,3.7-8.9c-.1,3.2-.4,6.4-.7,9.6s-.7,6.3-1.1,9.5c-.5,3.9-1.1,7.8-1.7,11.7a48.88,48.88,0,0,1,39.1,8.8,45.25,45.25,0,0,1,11.8-9.5,47.07,47.07,0,0,1,13.9-4.9c-.3-.5-.5-.9-.8-1.4a76.33,76.33,0,0,1-3.9-7.5,82.06,82.06,0,0,1-5.6-16C1043,330,1046.2,334.5,1049.6,338.7Zm-46.2-75a163.4,163.4,0,0,1,12.7,29.1,156.86,156.86,0,0,1,6.5,31,120.22,120.22,0,0,1-.6,31.7c-3.2-10.2-5.7-20.1-8.4-30s-5.6-19.6-8.7-29.2-6.4-19.2-9.8-28.8-7.2-19.2-10.7-29.2A122.91,122.91,0,0,1,1003.4,263.7Z"
          transform="translate(633.6 678.05)"
        />
        <path
          class="cls-6"
          d="M749.55-449.67c-1.2-12.4-8.1-14-21.4-38.4-9.6-17.7-16.4-29.9-17.3-46.3-1.2-20.1,7.7-22.5,4.6-40-.3-1.9-5.8-30.4-27.5-36.5-9.3-2.6-17.7-.1-22.1,1.7a41.14,41.14,0,0,0-5.7-18.1c-11-17.6-33.7-20.2-39.7-20.6-8-.6-22.9,3.4-52.2,11.2-14.3,3.8-23.7,6.6-30.1,1.5-4.6-3.7-3.2-7.9-7.8-16.2-4.9-8.9-13.9-17.4-23.7-20.4-16.7-5.1-32.9,6.3-40.2,11.4-4.5,3.1-16.9,12.5-32.7,43.6-16.9,33.3-13.6,43.8-31.1,69.6-16.6,24.5-27.8,27-32.5,27.6-2.1.2-6.8.5-27.9-8.4-27.9-11.8-30.2-16.7-39.8-16.6-15.8.1-27.5,13.4-36.4,23.5-5.6,6.3-23.6,26.8-22.8,53.7.4,14.5,6.4,33,13.2,54.3,2.1,6.6,4.7,14.1,1.7,22.1-3.6,9.3-11.8,10.8-18.3,17.7-9.9,10.7-4.8,22.7-6.7,46-2.5,31-16.1,63.1-31.3,83.6a241.79,241.79,0,0,0-14.3,21.8c-9.5,16.3-14.3,24.5-12.5,31.9.5,1.8,1.4,4.4,17.2,16.2-6.2,3.8-12.5,7.6-18.8,11.3-23.4,13.7-47.6,26.7-72,38.6a10,10,0,0,0-4.6,13.3,10,10,0,0,0,13.3,4.6c24.7-12.2,49.4-25.5,73.2-39.5,8.8-5.2,17.5-10.5,26.2-15.9,9.7,6.6,13.7,8.7,16.8,10.1,10,4.6,17.2,7.9,26,6.4,9.1-1.5,10.9-6.7,18.2-9.7,14.4-5.9,25.2,7,49.8,14.8,0,0,33.2,10.5,70.1-1,11-3.4,24.9-8,28.3-19.6,2.4-8.1-1.4-16-3.7-20.1a109.07,109.07,0,0,0,32,.5c38.9-5.2,63.9-30.1,74.7-40.9s30.6-30.6,39-61.5c6.4-23.6,1.8-37.4,14.8-49.8,8.9-8.5,23.3-13.8,36.2-11.5,10.7,1.9,12.3,7.5,21.9,10.4,17.9,5.3,36.2-7.1,48.3-15.3,18.4-12.4,28.5-28,48.9-59.3C749.15-435.87,750.05-443.47,749.55-449.67ZM422-468.17a285,285,0,0,1,14.6-58,367.48,367.48,0,0,1,24.9-54c4.8-8.6,9.9-17.1,15.3-25.4s11.1-16.4,17.2-24.2c-2.8,9.6-6.4,18.7-9.8,28s-7.1,18.3-10.7,27.4c-7.3,18.1-14.5,36-21,54.1s-12.4,36.3-17.5,55-9.6,37.6-14.5,56.8A253.49,253.49,0,0,1,422-468.17Zm-106.7,13c7.8,17.4,15.4,34.6,22.4,52.6a211.11,211.11,0,0,1,13.8,57c1.8,19.5,1.2,39.1-3,58.1-2.8-19.2-5.8-37.9-10.1-56a374,374,0,0,0-16.5-53c-6.9-17.5-13.6-35.6-19.1-54-2.8-9.2-5.3-18.5-7.4-27.8s-4.2-18.8-5.6-28.4C299.45-489.87,307.25-472.47,315.25-455.17ZM259.05-327a90,90,0,0,1,10.9,24.4,133.12,133.12,0,0,1,4.7,25.8,135.08,135.08,0,0,1-.4,26.2c-1.1,8.7-2.9,17.4-6.7,25.9a139.91,139.91,0,0,1-6.6-25.6c-1.5-8.4-2.5-16.8-3.2-25.1s-1.1-16.8-1-25.3A141.07,141.07,0,0,1,259.05-327ZM223-185.27c22.1-11.5,43.7-23.9,63.9-38,10.1-7,20.1-14.4,29.8-22s19.1-15.5,28-23.9,17.4-17.2,25.3-26.3a249.2,249.2,0,0,0,21.6-29.1c13.5-20.6,27.1-41.7,40.9-62.5q21.15-30.9,42.8-61.4c7.3-10.3,15.1-20.3,23.3-30s16.7-19,25.6-27.9c35.4-35.8,75.3-66.7,117.6-93.2-38.1,32.2-75,65.5-107.9,102.3-16.3,18.5-31.8,37.5-45.3,58l-20.9,30.9-21,30.8-20.8,30.9c-7,10.3-13.7,20.8-20.9,31.1a262,262,0,0,1-23.9,30,311.14,311.14,0,0,1-27.6,26.3,353.5,353.5,0,0,1-30.2,23c-10.4,7-21,13.8-31.9,20.1A388.72,388.72,0,0,1,223-185.27Zm146.2,20.8a110.44,110.44,0,0,1-28.9-6.7,114.65,114.65,0,0,1-26.1-13.9,82.63,82.63,0,0,1-20.9-21.2c9.8,2.8,18.5,6.2,27.3,9.4l25.8,9.8,25.8,9.6c8.7,3.3,17.6,6.5,26.7,10.8A82.85,82.85,0,0,1,369.15-164.47ZM484-233.57a86,86,0,0,1-22.1-2.3c-3.6-.8-7.1-1.8-10.4-2.8s-6.4-2.1-9.6-2.9a352.48,352.48,0,0,0-38.8-8.8c-13.3-2.4-26.8-4.2-40.8-6.9a138.76,138.76,0,0,1,41.9-6.4,150.24,150.24,0,0,1,42.5,5.8c3.5,1,7,2.2,10.1,3.3s6.3,2.2,9.4,3.2a121.2,121.2,0,0,0,18.7,4.5,99.19,99.19,0,0,0,39.6-1.9C513.85-239.07,498.85-233.87,484-233.57Zm164.2-166.9c-11.6,2.7-23.1,4.1-34.5,5.5s-22.8,2.5-34.4,3.2l-17,.9a92.1,92.1,0,0,0-15.5,2.3,128.52,128.52,0,0,0-15.3,4.5c-5,1.9-10.4,4.3-16.1,6.2a161.45,161.45,0,0,1-69.4,7.6c22.6-4.4,44.5-10.5,64.4-19.9,4.9-2.3,9.8-5.1,15.3-7.6a107.51,107.51,0,0,1,17.2-6.3,97.68,97.68,0,0,1,18.2-3.5c6-.5,11.6-.7,17.2-1.1l34-2.3c11.4-.7,22.7-1.4,33.7-2.6,21.9-2.6,43.7-8.8,65.4-16.6A170.25,170.25,0,0,1,648.15-400.47Z"
          transform="translate(633.6 678.05)"
        />
        <path
          class="cls-7"
          d="M978.4,314.4a68.34,68.34,0,0,0,32.9,10.9c3.9-4.9,7.9-9.9,11.9-14.8a86.67,86.67,0,0,0,27,18.3,90.13,90.13,0,0,0,23.7,6.4c3.9-4.9,7.9-9.9,11.9-14.8a72.37,72.37,0,0,0,47.8,22.8c3-6.2,6.1-12.3,9.1-18.5a63.89,63.89,0,0,0,17.6,15.5,65.21,65.21,0,0,0,30,8.9c2.1-3,4.1-6,6.2-9a64.6,64.6,0,0,0,20.8,15.9,65.5,65.5,0,0,0,18.9,5.8c1.4-2.5,2.9-5.1,4.3-7.6a54.2,54.2,0,0,0,58.7,12.8l1.4,1a55.2,55.2,0,0,0-6.8-32.5,53.77,53.77,0,0,0-21.4-20.8l6.2-6.2a63.09,63.09,0,0,0-10.7-16.6,64.84,64.84,0,0,0-21-15.7c2.4-2.8,4.7-5.6,7.1-8.4a63.5,63.5,0,0,0-36.4-39.1c5.1-4.6,10.3-9.2,15.4-13.8a72.79,72.79,0,0,0-34.9-39.8c3.7-5.2,7.5-10.3,11.2-15.5a87.36,87.36,0,0,0-12.6-21.1,86.48,86.48,0,0,0-25.1-21.1c3.7-5.2,7.5-10.3,11.2-15.5a67.15,67.15,0,0,0-45-42.6l11.8-13.9a107.89,107.89,0,0,0-16.5-17.7,109.79,109.79,0,0,0-24.6-15.9c2.9-4.2,5.9-8.4,8.8-12.7a41.53,41.53,0,0,0-21-15.7,41.14,41.14,0,0,0-21.9-1.1c1.4-3.6,2.9-7.1,4.3-10.7a54,54,0,0,0-24.9-12.3,52.39,52.39,0,0,0-19.7-.3l4.5-14.4a52.88,52.88,0,0,0-17.8-8.3,51.5,51.5,0,0,0-23.4-.5c-1.8-4.8-3.6-9.7-5.3-14.5-20.9-10.1-97.4-44-182.6-14.8a220,220,0,0,0-64,34.7,231.14,231.14,0,0,1-28.6-30.7A234.13,234.13,0,0,1,681-155.1a5.65,5.65,0,0,0-4.6-3.7,6.26,6.26,0,0,0-2.7.3,5.72,5.72,0,0,0-3.5,7.3,246.32,246.32,0,0,0,37.6,68.8,242.87,242.87,0,0,0,30.6,32.7,214.58,214.58,0,0,0-16,70.2c-5,89.5,48.2,153.6,63.6,170.9l15.4,1.2a52.91,52.91,0,0,0,6.8,22.2,52.28,52.28,0,0,0,12.7,14.8c4.2-2.7,8.4-5.5,12.6-8.2a53.69,53.69,0,0,0,5.6,18.8,55,55,0,0,0,18.5,20.5l9.1-7a41.2,41.2,0,0,0,27.8,36.5c3.3-3.9,6.5-7.9,9.8-11.8a106.86,106.86,0,0,0,21.9,19.3,109.3,109.3,0,0,0,21.4,11c3.4-5,6.8-10,10.3-15.1A69.88,69.88,0,0,0,978.4,314.4Zm59.6-44.3a264.23,264.23,0,0,1-13.1-38.8c-1.7-6.6-3-13.3-4.2-20.1s-2.1-13.5-2.6-20.4a215,215,0,0,1,0-40.9c1.4,13.6,2.9,27,5.1,40.3,1.1,6.6,2.2,13.3,3.6,19.9s2.8,13.2,4.5,19.6c.7,3.3,1.7,6.5,2.5,9.8l2.8,9.7c1.8,6.5,4,12.8,6.2,19.2,4.4,12.7,9.4,25.2,14.7,37.8A216.82,216.82,0,0,1,1038,270.1Zm56.8,15a160.11,160.11,0,0,1-14.2-55.5,130.23,130.23,0,0,1,.9-28.6c1.3,9.5,2.5,18.8,4.1,28s3.5,18.3,5.8,27.4,5,18,8,26.8,6.4,17.6,9.9,26.5A134.73,134.73,0,0,1,1094.8,285.1Zm50.7,12.3a91.54,91.54,0,0,1-7.3-17.4,90.54,90.54,0,0,1-3.7-18.5,70.43,70.43,0,0,1,.5-18.9c1.7,6.1,3,12.1,4.5,18s3.1,11.7,4.9,17.5,3.7,11.5,5.8,17.3,4.3,11.4,6.4,17.4A79.19,79.19,0,0,1,1145.5,297.4Zm20.8-89.3a82,82,0,0,1,17.1,2.4,65.21,65.21,0,0,1,16.1,6.1c-5.8-.4-11.3-1.1-16.9-1.5s-11.1-.8-16.6-1.1-11.1-.3-16.6-.2-11.2.2-17,.2a68.86,68.86,0,0,1,16.6-4.9A83.38,83.38,0,0,1,1166.3,208.1Zm-5.6-39.5a122.66,122.66,0,0,1,25.2,7.1c-8.7-1-17.2-1.9-25.8-2.5s-17.1-.8-25.6-.8-17,.6-25.6,1.3-17.1,1.8-25.7,2.9a115.2,115.2,0,0,1,25.1-7.5,153.06,153.06,0,0,1,26.2-2.6A135,135,0,0,1,1160.7,168.6ZM936.8-13.6c7.6-2.2,15.2-4.2,22.9-6.1s15.4-3.5,23.2-5,15.5-2.8,23.3-3.9a438.2,438.2,0,0,1,47.1-4.2c-15.5,2.8-31,5.6-46.3,8.7-7.7,1.6-15.3,3.1-23,4.8s-15.3,3.4-22.9,5.3-15.2,3.7-22.8,5.7-15.1,4.1-22.7,6.1C900.5,2,885.5,6.6,870.3,11.1A406.58,406.58,0,0,1,914.2-6.6C921.6-9,929.2-11.3,936.8-13.6Zm-47.1-17c5.6-2.2,11.3-4.5,16.8-6.9s11.2-4.7,16.7-7.1,11.1-4.9,16.7-7.3l33.3-15a278.36,278.36,0,0,1-31.3,19.1c-5.4,2.9-10.9,5.6-16.4,8.3s-11.2,5.1-16.8,7.5-11.4,4.6-17.1,6.6-11.5,4-17.4,5.8A267.61,267.61,0,0,1,838.6-11c11.4-4.5,22.8-8.7,34.1-13.1C878.4-26.2,884.1-28.3,889.7-30.6ZM840.9-41.9c8.8-3.7,17.4-8.1,25.8-12.6s16.7-9.4,24.9-14.5S907.8-79.5,916-84.8a161.44,161.44,0,0,1-21.7,19.6,182.31,182.31,0,0,1-24.7,15.9,157.36,157.36,0,0,1-27,11.7,89.5,89.5,0,0,1-28.9,4.9A170.67,170.67,0,0,0,840.9-41.9ZM816.4-54.8a103.87,103.87,0,0,0,16.4-10.5,105,105,0,0,0,14.1-13.4,138.39,138.39,0,0,0,11.9-16,57.28,57.28,0,0,1-8.2,18.8,64.09,64.09,0,0,1-14.1,15.3,68,68,0,0,1-18.2,10.2,56.19,56.19,0,0,1-20.2,3.5A186.81,186.81,0,0,0,816.4-54.8ZM771.3-49l16.5,10.2c11,6.8,21.9,13.7,32.8,20.7C842.3-4,863.8,10.4,884.9,25.2c7,4.9,13.9,9.8,20.8,14.8a361.47,361.47,0,0,1,49.2-13.5c8.5-1.8,17.1-3.2,25.7-4.5s17.2-2.1,25.9-2.9c8.7-.6,17.4-1.1,26.1-1.3s17.4-.1,26.1.3a357.2,357.2,0,0,1,51.7,5.8c-17.3-.8-34.6-1.3-51.8-1.1-8.6.1-17.2.2-25.8.7s-17.2.8-25.8,1.6c-8.6.6-17.1,1.5-25.7,2.5s-17.1,2.2-25.6,3.4c-16.7,2.5-33.2,5.7-49.8,9.1q21,15.15,41.8,30.8c4.1,3.1,8.2,6.3,12.3,9.4a292.9,292.9,0,0,1,41.5-10.4c7.8-1.4,15.6-2.5,23.5-3.4s15.8-1.4,23.7-1.7a340.85,340.85,0,0,1,47.4,1.5,281.83,281.83,0,0,1,46.5,8.5c-15.7-1.7-31.3-3.1-46.9-3.9-7.8-.3-15.6-.6-23.4-.6-3.9-.1-7.8,0-11.7,0s-7.8.2-11.7.4c-15.6.5-31.2,1.9-46.7,3.8-13.8,1.7-27.6,3.9-41.4,6.4,16.1,12.4,32.2,25.1,48,37.9,5.3,4.4,10.6,8.7,15.9,13.1a197.67,197.67,0,0,1,34.8-9c6.2-1.1,12.4-1.8,18.6-2.5,6.2-.5,12.5-.9,18.8-1a233.51,233.51,0,0,1,37.4,2.5,195.88,195.88,0,0,1,36.3,8.7c-12.3-1.7-24.6-3.2-36.9-4.1-6.1-.4-12.3-.8-18.4-1l-9.2-.2c-3.1,0-6.1,0-9.2.1-6.1,0-12.3.3-18.4.6s-12.3.9-18.4,1.4c-11.7,1.2-23.3,2.8-35.1,4.7,34.5,28.5,68.6,57.4,102,87.1q28.95,25.8,57.3,52.2c9.4,8.9,18.8,17.8,28.1,26.7l13.9,13.5,13.8,13.6-28.9-25.8c-9.6-8.6-19.3-17.1-29.1-25.6q-29.1-25.65-58.5-50.8c-19.7-16.7-39.3-33.5-59.2-49.9-19.9-16.6-39.7-33.1-59.7-49.3S964.4,91.5,944,75.7s-41.1-31.2-61.9-46.5S840.2-1,818.9-15.6c-10.6-7.4-21.2-14.7-32-21.9L754.7-59Zm-40,88.7a154.42,154.42,0,0,0,13.6-17.1A112.66,112.66,0,0,0,755.2,4a119.25,119.25,0,0,0,6.6-20.2,151.83,151.83,0,0,0,3.1-21.6,60.18,60.18,0,0,1,1.9,22.4,70.06,70.06,0,0,1-5.7,22,72.76,72.76,0,0,1-12.2,19.2A60.83,60.83,0,0,1,731.3,39.7Zm36.6,27.5c3.1-10.1,5.9-20.2,8.4-30.4s4.6-20.4,6.1-30.8a205.43,205.43,0,0,0,2.2-31.4,100.94,100.94,0,0,1,2.9,32,169.74,169.74,0,0,1-4.9,31.8A218.37,218.37,0,0,1,772.7,69,178.57,178.57,0,0,1,758,97.5C761.3,87.2,764.7,77.2,767.9,67.2Zm31.6,46.2c1-6.6,2.1-13.1,3-19.7s2-13.1,2.8-19.7c1-6.5,1.8-13.1,2.6-19.7s1.5-13.2,2.3-19.8c1.5-13.2,2.8-26.4,4.3-39.7a315.43,315.43,0,0,1,.8,40.1c-.2,6.7-.7,13.4-1.3,20s-1.4,13.3-2.3,19.9-2,13.2-3.2,19.8-2.6,13.2-4.2,19.6a319.85,319.85,0,0,1-11.5,38.4ZM842.8,177c-1.1-8.6-1.7-17.2-2.4-25.8s-.9-17.3-1.2-25.9c-.1-8.6-.2-17.3,0-25.9s.6-17.3,1.2-25.9a445.68,445.68,0,0,1,6.5-51.4c-.5,17.3-1.1,34.4-1.4,51.6-.1,8.6-.3,17.1-.1,25.7,0,8.6.1,17.1.3,25.7s.4,17.1.8,25.7.8,17.1,1.3,25.7c1,17.1,2.4,34.2,3.8,51.4A440.28,440.28,0,0,1,842.8,177Zm64.1,42.4c-2.9-9.1-5.3-18.3-7.6-27.5s-4.2-18.6-6-27.9c-1.6-9.4-3.1-18.8-4.2-28.2s-2-18.9-2.5-28.4a385.87,385.87,0,0,1,.7-56.9c1.1,19,2.4,37.8,4.4,56.5,1.1,9.4,2.1,18.7,3.5,28s2.8,18.6,4.5,27.9,3.5,18.5,5.5,27.7,4.2,18.3,6.5,27.5c4.7,18.2,10.1,36.3,15.7,54.4A431.45,431.45,0,0,1,906.9,219.4Zm61.5,26.1a389.18,389.18,0,0,1-14.9-49.7c-1.9-8.4-3.4-17-4.8-25.5-1.2-8.5-2.3-17.1-3-25.8a320,320,0,0,1-.2-51.8c1.3,17.2,3,34.3,5.3,51.2s5.3,33.8,9.1,50.4c.9,4.2,1.9,8.3,2.9,12.5s2.1,8.3,3.2,12.4c2.1,8.3,4.7,16.4,7.2,24.6,5.2,16.3,11,32.4,17.2,48.5A322,322,0,0,1,968.4,245.5Z"
          transform="translate(633.6 678.05)"
        />
      </svg>
